<svg width="25" height="26" viewBox="0 0 25 26" fill="none" xmlns="http://www.w3.org/2000/svg">
<g clip-path="url(#clip0_265_2286)">
<path d="M17.5217 22.2448V20.1892C17.5217 19.0989 17.0991 18.0532 16.347 17.2822C15.5948 16.5113 14.5747 16.0781 13.511 16.0781H5.48967C4.42598 16.0781 3.40585 16.5113 2.6537 17.2822C1.90156 18.0532 1.479 19.0989 1.479 20.1892V22.2448" stroke="#D5FF45" stroke-width="1.99832" stroke-linecap="round" stroke-linejoin="round"/>
<path d="M9.50139 11.9722C11.7164 11.9722 13.5121 10.1316 13.5121 7.86111C13.5121 5.59061 11.7164 3.75 9.50139 3.75C7.28636 3.75 5.49072 5.59061 5.49072 7.86111C5.49072 10.1316 7.28636 11.9722 9.50139 11.9722Z" stroke="#D5FF45" stroke-width="1.99832" stroke-linecap="round" stroke-linejoin="round"/>
<path d="M23.5388 22.244V20.1884C23.5381 19.2775 23.2423 18.3927 22.6979 17.6728C22.1535 16.9528 21.3912 16.4387 20.5308 16.2109" stroke="#D5FF45" stroke-width="1.99832" stroke-linecap="round" stroke-linejoin="round"/>
<path d="M16.52 3.88281C17.3827 4.10923 18.1474 4.62353 18.6934 5.34463C19.2395 6.06573 19.5359 6.95261 19.5359 7.86545C19.5359 8.77829 19.2395 9.66517 18.6934 10.3863C18.1474 11.1074 17.3827 11.6217 16.52 11.8481" stroke="#D5FF45" stroke-width="1.99832" stroke-linecap="round" stroke-linejoin="round"/>
</g>
<defs>
<clipPath id="clip0_265_2286">
<rect width="24.064" height="24.6667" fill="white" transform="translate(0.477539 0.664062)"/>
</clipPath>
</defs>
</svg>
