<svg width="40" height="40" viewBox="0 0 40 40" fill="none" xmlns="http://www.w3.org/2000/svg">
<rect x="0.5" y="0.5" width="39" height="39" rx="7.5" stroke="#8F8F93"/>
<path d="M19.9998 20.8307C20.4601 20.8307 20.8332 20.4576 20.8332 19.9974C20.8332 19.5372 20.4601 19.1641 19.9998 19.1641C19.5396 19.1641 19.1665 19.5372 19.1665 19.9974C19.1665 20.4576 19.5396 20.8307 19.9998 20.8307Z" stroke="white" stroke-width="1.99832" stroke-linecap="round" stroke-linejoin="round"/>
<path d="M25.8333 20.8307C26.2936 20.8307 26.6667 20.4576 26.6667 19.9974C26.6667 19.5372 26.2936 19.1641 25.8333 19.1641C25.3731 19.1641 25 19.5372 25 19.9974C25 20.4576 25.3731 20.8307 25.8333 20.8307Z" stroke="white" stroke-width="1.99832" stroke-linecap="round" stroke-linejoin="round"/>
<path d="M14.1668 20.8307C14.6271 20.8307 15.0002 20.4576 15.0002 19.9974C15.0002 19.5372 14.6271 19.1641 14.1668 19.1641C13.7066 19.1641 13.3335 19.5372 13.3335 19.9974C13.3335 20.4576 13.7066 20.8307 14.1668 20.8307Z" stroke="white" stroke-width="1.99832" stroke-linecap="round" stroke-linejoin="round"/>
</svg>
