<svg width="28" height="28" viewBox="0 0 28 28" fill="none" xmlns="http://www.w3.org/2000/svg">
<g clip-path="url(#clip0_265_1801)">
<path d="M15.7502 25.5386C21.363 24.6939 25.6668 19.8511 25.6668 14.0026C25.6668 7.5591 20.4437 2.33594 14.0002 2.33594C7.55666 2.33594 2.3335 7.5591 2.3335 14.0026C2.3335 19.8511 6.63733 24.6951 12.2502 25.5386V17.5026H10.5002C10.036 17.5026 9.59091 17.3182 9.26273 16.99C8.93454 16.6619 8.75016 16.2167 8.75016 15.7526C8.75016 15.2885 8.93454 14.8434 9.26273 14.5152C9.59091 14.187 10.036 14.0026 10.5002 14.0026H12.2502V11.6693C12.2502 10.5863 12.6804 9.54769 13.4461 8.78192C14.2119 8.01614 15.2505 7.58594 16.3335 7.58594H16.9168C17.381 7.58594 17.8261 7.77031 18.1543 8.0985C18.4825 8.42669 18.6668 8.87181 18.6668 9.33594C18.6668 9.80007 18.4825 10.2452 18.1543 10.5734C17.8261 10.9016 17.381 11.0859 16.9168 11.0859H16.3335C16.1788 11.0859 16.0304 11.1474 15.921 11.2568C15.8116 11.3662 15.7502 11.5146 15.7502 11.6693V14.0026H17.5002C17.9643 14.0026 18.4094 14.187 18.7376 14.5152C19.0658 14.8434 19.2502 15.2885 19.2502 15.7526C19.2502 16.2167 19.0658 16.6619 18.7376 16.99C18.4094 17.3182 17.9643 17.5026 17.5002 17.5026H15.7502V25.5386Z" fill="white"/>
</g>
<defs>
<clipPath id="clip0_265_1801">
<rect width="28" height="28" fill="white"/>
</clipPath>
</defs>
</svg>
