<svg width="20" height="20" viewBox="0 0 20 20" fill="none" xmlns="http://www.w3.org/2000/svg">
<path d="M9.79031 19.9832C12.4281 19.9832 14.6462 19.084 16.2649 17.5653C18.1233 15.8067 19.1824 13.2489 19.1824 10.2114C19.1824 9.39211 19.1225 8.79262 18.9826 8.17314H9.79031V11.87H15.1858C15.0659 12.7893 14.4864 14.1881 13.1875 15.1073C12.3482 15.7068 11.2491 16.1065 9.79031 16.1065C7.1925 16.1065 4.99434 14.3679 4.215 11.9699C4.01516 11.3505 3.89526 10.691 3.89526 9.99161C3.89526 9.2922 4.01516 8.63275 4.215 8.01327C4.99434 5.5953 7.1925 3.85676 9.79031 3.85676C11.6288 3.85676 12.8677 4.67607 13.5671 5.3555L16.3248 2.59782C14.6462 0.979178 12.4281 0 9.79031 0C5.95354 0 2.6563 2.23812 1.03766 5.49539C0.378216 6.85424 -0.00146484 8.39295 -0.00146484 9.99161C-0.00146484 11.5903 0.378216 13.109 1.03766 14.4679C2.63632 17.7451 5.95354 19.9832 9.79031 19.9832Z" fill="white"/>
</svg>
