<svg width="25" height="26" viewBox="0 0 25 26" fill="none" xmlns="http://www.w3.org/2000/svg">
<g clip-path="url(#clip0_265_1949)">
<path d="M17.6123 22.5052V20.3941C17.6123 19.2743 17.1852 18.2004 16.4251 17.4085C15.6649 16.6167 14.6339 16.1719 13.5589 16.1719H5.45226C4.37725 16.1719 3.34627 16.6167 2.58612 17.4085C1.82597 18.2004 1.39893 19.2743 1.39893 20.3941V22.5052" stroke="white" stroke-width="1.99832" stroke-linecap="round" stroke-linejoin="round"/>
<path d="M9.50646 11.9444C11.7451 11.9444 13.5598 10.0541 13.5598 7.72222C13.5598 5.39035 11.7451 3.5 9.50646 3.5C7.26786 3.5 5.45312 5.39035 5.45312 7.72222C5.45312 10.0541 7.26786 11.9444 9.50646 11.9444Z" stroke="white" stroke-width="1.99832" stroke-linecap="round" stroke-linejoin="round"/>
<path d="M23.6933 22.5008V20.3897C23.6927 19.4542 23.3937 18.5454 22.8435 17.806C22.2933 17.0666 21.5229 16.5386 20.6533 16.3047" stroke="white" stroke-width="1.99832" stroke-linecap="round" stroke-linejoin="round"/>
<path d="M16.5996 3.64062C17.4715 3.87316 18.2443 4.40136 18.7962 5.14195C19.348 5.88254 19.6476 6.79339 19.6476 7.7309C19.6476 8.66842 19.348 9.57926 18.7962 10.3199C18.2443 11.0604 17.4715 11.5886 16.5996 11.8212" stroke="white" stroke-width="1.99832" stroke-linecap="round" stroke-linejoin="round"/>
</g>
<defs>
<clipPath id="clip0_265_1949">
<rect width="24.32" height="25.3333" fill="white" transform="translate(0.386719 0.335938)"/>
</clipPath>
</defs>
</svg>
