<svg width="71" height="71" viewBox="0 0 71 71" fill="none" xmlns="http://www.w3.org/2000/svg">
<path d="M35.5 35.5C39.0307 35.5 42.4168 34.0974 44.9134 31.6009C47.4099 29.1043 48.8125 25.7182 48.8125 22.1875C48.8125 18.6568 47.4099 15.2707 44.9134 12.7741C42.4168 10.2776 39.0307 8.875 35.5 8.875C31.9693 8.875 28.5832 10.2776 26.0866 12.7741C23.5901 15.2707 22.1875 18.6568 22.1875 22.1875C22.1875 25.7182 23.5901 29.1043 26.0866 31.6009C28.5832 34.0974 31.9693 35.5 35.5 35.5ZM44.375 22.1875C44.375 24.5413 43.44 26.7987 41.7756 28.4631C40.1112 30.1275 37.8538 31.0625 35.5 31.0625C33.1462 31.0625 30.8888 30.1275 29.2244 28.4631C27.56 26.7987 26.625 24.5413 26.625 22.1875C26.625 19.8337 27.56 17.5763 29.2244 15.9119C30.8888 14.2475 33.1462 13.3125 35.5 13.3125C37.8538 13.3125 40.1112 14.2475 41.7756 15.9119C43.44 17.5763 44.375 19.8337 44.375 22.1875ZM62.125 57.6875C62.125 62.125 57.6875 62.125 57.6875 62.125H13.3125C13.3125 62.125 8.875 62.125 8.875 57.6875C8.875 53.25 13.3125 39.9375 35.5 39.9375C57.6875 39.9375 62.125 53.25 62.125 57.6875ZM57.6875 57.6698C57.6831 56.5781 57.0041 53.2944 53.9955 50.2857C51.1022 47.3925 45.6574 44.375 35.5 44.375C25.3381 44.375 19.8977 47.3925 17.0045 50.2857C13.9959 53.2944 13.3214 56.5781 13.3125 57.6698H57.6875Z" fill="white"/>
</svg>
